# xmcd
#
# Track frame offsets:
#	150
#	16329
#	29632
#	41602
#	59538
#	73544
#	86024
#	100339
#	117862
#	131746
#	152827
#	168383
#
# Disc length: 2441 seconds
#
# Revision: 0
# Processed by: cddbd v1.5.2PL0 Copyright (c) Steve Scherf et al.
# Submitted via: dBpowerAMP V4.0
#
DISCID=a309870c
DTITLE=Olivia Newton-John - Have You Never Been Mellow
DYEAR=1975
DGENRE=Country
TTITLE0=Have You Never Been Mellow
TTITLE1=Loving Arms
TTITLE2=Lifestream
TTITLE3=Goodbye Again
TTITLE4=Water Under The Bridge
TTITLE5=I Never Did Sing You A Love Song
TTITLE6=It's So Easy
TTITLE7=The Air That I Breathe
TTITLE8=Follow Me
TTITLE9=And In The Morning
TTITLE10=Please Mr. Please
TTITLE11=If You Love Me (Let Me Know)
EXTD=
EXTT0=
EXTT1=
EXTT2=
EXTT3=
EXTT4=
EXTT5=
EXTT6=
EXTT7=
EXTT8=
EXTT9=
EXTT10=
EXTT11=
PLAYORDER=
